<svg width="16" height="16" viewBox="0 0 16 16" fill="none" xmlns="http://www.w3.org/2000/svg">
<circle cx="8" cy="8" r="7.75" stroke="#333333" stroke-width="0.5"/>
<path d="M8.59844 4.0375L8.46719 9.65391H7.34063L7.20391 4.0375H8.59844ZM7.16563 11.3766C7.16563 11.176 7.23125 11.0083 7.3625 10.8734C7.4974 10.7349 7.68333 10.6656 7.92031 10.6656C8.15365 10.6656 8.33776 10.7349 8.47266 10.8734C8.60755 11.0083 8.675 11.176 8.675 11.3766C8.675 11.5698 8.60755 11.7357 8.47266 11.8742C8.33776 12.0091 8.15365 12.0766 7.92031 12.0766C7.68333 12.0766 7.4974 12.0091 7.3625 11.8742C7.23125 11.7357 7.16563 11.5698 7.16563 11.3766Z" fill="#333333"/>
</svg>
